<?xml version="1.0" encoding="utf-8"?>
<!-- Generator: Adobe Illustrator 22.1.0, SVG Export Plug-In . SVG Version: 6.00 Build 0)  -->
<svg version="1.1" id="Layer_1" xmlns="http://www.w3.org/2000/svg" xmlns:xlink="http://www.w3.org/1999/xlink" x="0px" y="0px"
	 viewBox="0 0 512 512" style="enable-background:new 0 0 512 512;" xml:space="preserve">
<style type="text/css">
	.st0{display:none;}
	.st1{display:inline;}
	.st2{fill:none;stroke:#000000;stroke-width:16;stroke-linecap:round;stroke-linejoin:round;stroke-miterlimit:10;}
	.st3{fill:#FFFFFF;}
</style>
<g id="layer" class="st0">
	<g class="st1">
		<g>
			<path d="M256,59c26.6,0,52.4,5.2,76.7,15.5c23.5,9.9,44.5,24.1,62.6,42.2c18.1,18.1,32.3,39.2,42.2,62.6
				c10.3,24.3,15.5,50.1,15.5,76.7s-5.2,52.4-15.5,76.7c-9.9,23.5-24.1,44.5-42.2,62.6c-18.1,18.1-39.2,32.3-62.6,42.2
				C308.4,447.8,282.6,453,256,453s-52.4-5.2-76.7-15.5c-23.5-9.9-44.5-24.1-62.6-42.2c-18.1-18.1-32.3-39.2-42.2-62.6
				C64.2,308.4,59,282.6,59,256s5.2-52.4,15.5-76.7c9.9-23.5,24.1-44.5,42.2-62.6c18.1-18.1,39.2-32.3,62.6-42.2
				C203.6,64.2,229.4,59,256,59 M256,43C138.4,43,43,138.4,43,256s95.4,213,213,213s213-95.4,213-213S373.6,43,256,43L256,43z"/>
		</g>
		<polygon class="st2" points="211,169 333,256 211,343 		"/>
	</g>
</g>
<g id="expanded">
	<g>
		<path class="st3" d="M256,23.9c31.3,0,61.7,6.1,90.4,18.2c27.6,11.7,52.5,28.4,73.8,49.8c21.3,21.3,38.1,46.2,49.8,73.8
			c12.1,28.6,18.2,59,18.2,90.4s-6.1,61.7-18.2,90.4c-11.7,27.6-28.4,52.5-49.8,73.8c-21.3,21.3-46.2,38.1-73.8,49.8
			c-28.6,12.1-59,18.2-90.4,18.2s-61.7-6.1-90.4-18.2c-27.6-11.7-52.5-28.4-73.8-49.8c-21.3-21.3-38.1-46.2-49.8-73.8
			c-12.1-28.6-18.2-59-18.2-90.4s6.1-61.7,18.2-90.4c11.7-27.6,28.4-52.5,49.8-73.8c21.3-21.3,46.2-38.1,73.8-49.8
			C194.3,30,224.7,23.9,256,23.9 M256,5C117.4,5,5,117.4,5,256s112.4,251,251,251s251-112.4,251-251S394.6,5,256,5L256,5z"/>
		<g>
			<path class="st3" d="M203,367.9c-1.5,0-3-0.3-4.3-1c-3.1-1.6-5.1-4.9-5.1-8.4v-205c0-3.5,2-6.8,5.1-8.4c3.1-1.6,6.9-1.3,9.8,0.7
				l143.8,102.5c2.5,1.8,4,4.6,4,7.7c0,3-1.5,5.9-4,7.7L208.4,366.2C206.8,367.4,204.9,367.9,203,367.9z M212.4,171.8v168.4
				L330.5,256L212.4,171.8z"/>
		</g>
	</g>
</g>
</svg>
