<?xml version="1.0" encoding="utf-8"?>
<!-- Generator: Adobe Illustrator 22.1.0, SVG Export Plug-In . SVG Version: 6.00 Build 0)  -->
<svg version="1.1" id="Layer_1" xmlns="http://www.w3.org/2000/svg" xmlns:xlink="http://www.w3.org/1999/xlink" x="0px" y="0px"
	 viewBox="0 0 128 128" style="enable-background:new 0 0 128 128;" xml:space="preserve">
<style type="text/css">
	.st0{fill:#FFFFFF;fill-opacity:0.45;}
	.st1{fill:#FFFFFF;fill-opacity:0.25;}
	.st2{fill:#FFFFFF;}
</style>
<path class="st0" d="M193.5,165c0-3,2.5-5.5,5.5-5.5h5.5v70H199c-3,0-5.5-2.5-5.5-5.5V165z"/>
<path class="st0" d="M414.5,159.5h5.5c3,0,5.5,2.5,5.5,5.5v59c0,3-2.5,5.5-5.5,5.5h-5.5V159.5z"/>
<path class="st1" d="M199,159.5h221c3,0,5.5,2.5,5.5,5.5v59c0,3-2.5,5.5-5.5,5.5H199c-3,0-5.5-2.5-5.5-5.5v-59
	C193.5,162,196,159.5,199,159.5z"/>
<polygon class="st2" points="64,17.1 0,128 128,128 "/>
</svg>
